<svg width="261" height="86" viewBox="0 0 261 86" fill="none" xmlns="http://www.w3.org/2000/svg">
<rect y="3" width="250" height="83" rx="33.3333" fill="#FAE00A"/>
<path d="M41.674 56.4C40.074 56.4 38.6184 56.0778 37.3073 55.4333C35.9962 54.7889 34.9517 53.8111 34.174 52.5C33.4184 51.1667 33.0406 49.4667 33.0406 47.4V32.6667H35.8406V47.4333C35.8406 48.9444 36.0851 50.1778 36.574 51.1333C37.0851 52.0889 37.7851 52.7889 38.674 53.2333C39.5629 53.6778 40.5851 53.9 41.7406 53.9C42.9184 53.9 43.9406 53.6778 44.8073 53.2333C45.674 52.7889 46.3517 52.0889 46.8406 51.1333C47.3295 50.1778 47.574 48.9444 47.574 47.4333V32.6667H50.374V47.4C50.374 49.4667 49.9851 51.1667 49.2073 52.5C48.4295 53.8111 47.3851 54.7889 46.074 55.4333C44.7629 56.0778 43.2962 56.4 41.674 56.4ZM52.6422 56V32.6667H55.4422V56H52.6422ZM66.3836 56.4C64.7836 56.4 63.328 56.0778 62.0169 55.4333C60.7058 54.7889 59.6614 53.8111 58.8836 52.5C58.128 51.1667 57.7503 49.4667 57.7503 47.4V32.6667H60.5503V47.4333C60.5503 48.9444 60.7947 50.1778 61.2836 51.1333C61.7947 52.0889 62.4947 52.7889 63.3836 53.2333C64.2725 53.6778 65.2947 53.9 66.4503 53.9C67.628 53.9 68.6503 53.6778 69.5169 53.2333C70.3836 52.7889 71.0614 52.0889 71.5503 51.1333C72.0392 50.1778 72.2836 48.9444 72.2836 47.4333V32.6667H75.0836V47.4C75.0836 49.4667 74.6947 51.1667 73.9169 52.5C73.1392 53.8111 72.0947 54.7889 70.7836 55.4333C69.4725 56.0778 68.0058 56.4 66.3836 56.4ZM76.0852 56L83.2185 44.2333L76.0852 32.6667H79.2518L84.9518 42.1H85.0185L90.4518 32.6667H93.5852L86.4518 44.3333L93.6185 56H90.4518L84.7852 46.5H84.6852L79.2518 56H76.0852ZM101.052 56V32.6667H108.219C110.952 32.6667 113.208 33.1444 114.986 34.1C116.763 35.0333 118.075 36.3778 118.919 38.1333C119.786 39.8667 120.219 41.9556 120.219 44.4C120.219 46.8 119.786 48.8667 118.919 50.6C118.075 52.3333 116.763 53.6667 114.986 54.6C113.208 55.5333 110.952 56 108.219 56H101.052ZM103.852 53.6667H108.152C110.419 53.6667 112.219 53.3 113.552 52.5667C114.908 51.8111 115.875 50.7444 116.452 49.3667C117.03 47.9667 117.319 46.3111 117.319 44.4C117.319 42.4444 117.03 40.7667 116.452 39.3667C115.875 37.9667 114.908 36.8889 113.552 36.1333C112.219 35.3778 110.419 35 108.152 35H103.852V53.6667ZM129.515 56.4C127.937 56.4 126.537 56.0444 125.315 55.3333C124.093 54.6 123.126 53.5889 122.415 52.3C121.726 50.9889 121.382 49.4667 121.382 47.7333C121.382 45.9778 121.726 44.4556 122.415 43.1667C123.104 41.8778 124.059 40.8778 125.282 40.1667C126.526 39.4333 127.959 39.0667 129.582 39.0667C131.204 39.0667 132.593 39.4333 133.748 40.1667C134.904 40.8778 135.793 41.8222 136.415 43C137.037 44.1556 137.348 45.4222 137.348 46.8C137.348 47.0222 137.348 47.2667 137.348 47.5333C137.348 47.7778 137.337 48.0556 137.315 48.3667H123.482V46.2H134.582C134.515 44.6667 134.004 43.4778 133.048 42.6333C132.115 41.7667 130.937 41.3333 129.515 41.3333C128.559 41.3333 127.67 41.5444 126.848 41.9667C126.026 42.3889 125.359 43.0111 124.848 43.8333C124.359 44.6556 124.115 45.7 124.115 46.9667V47.9C124.115 49.2778 124.37 50.4222 124.882 51.3333C125.393 52.2444 126.059 52.9333 126.882 53.4C127.704 53.8444 128.582 54.0667 129.515 54.0667C130.67 54.0667 131.637 53.8 132.415 53.2667C133.193 52.7333 133.759 52 134.115 51.0667H136.882C136.593 52.0889 136.115 53 135.448 53.8C134.782 54.6 133.948 55.2333 132.948 55.7C131.97 56.1667 130.826 56.4 129.515 56.4ZM145.08 56.4C143.769 56.4 142.592 56.1778 141.547 55.7333C140.503 55.2667 139.658 54.6222 139.014 53.8C138.392 52.9556 138.003 51.9667 137.847 50.8333H140.714C140.847 51.3889 141.08 51.9222 141.414 52.4333C141.769 52.9444 142.247 53.3556 142.847 53.6667C143.469 53.9778 144.225 54.1333 145.114 54.1333C145.914 54.1333 146.569 54.0222 147.08 53.8C147.592 53.5556 147.969 53.2444 148.214 52.8667C148.458 52.4667 148.58 52.0444 148.58 51.6C148.58 50.9778 148.414 50.5 148.08 50.1667C147.769 49.8111 147.292 49.5222 146.647 49.3C146.025 49.0556 145.28 48.8222 144.414 48.6C143.747 48.4222 143.069 48.2222 142.38 48C141.692 47.7778 141.058 47.5 140.48 47.1667C139.925 46.8111 139.469 46.3778 139.114 45.8667C138.78 45.3333 138.614 44.6778 138.614 43.9C138.614 42.9667 138.858 42.1444 139.347 41.4333C139.836 40.7 140.525 40.1222 141.414 39.7C142.325 39.2778 143.392 39.0667 144.614 39.0667C146.369 39.0667 147.803 39.5 148.914 40.3667C150.047 41.2333 150.703 42.4889 150.88 44.1333H148.114C148.025 43.2444 147.669 42.5556 147.047 42.0667C146.447 41.5778 145.625 41.3333 144.58 41.3333C143.558 41.3333 142.78 41.5556 142.247 42C141.714 42.4222 141.447 42.9667 141.447 43.6333C141.447 44.0778 141.58 44.4556 141.847 44.7667C142.136 45.0556 142.569 45.3111 143.147 45.5333C143.747 45.7333 144.48 45.9556 145.347 46.2C146.392 46.4889 147.369 46.8111 148.28 47.1667C149.192 47.5 149.936 47.9778 150.514 48.6C151.114 49.2222 151.414 50.0889 151.414 51.2C151.436 52.2222 151.18 53.1222 150.647 53.9C150.136 54.6778 149.403 55.2889 148.447 55.7333C147.514 56.1778 146.392 56.4 145.08 56.4ZM153.374 56V39.4667H156.174V56H153.374ZM154.774 36C154.219 36 153.752 35.8222 153.374 35.4667C152.997 35.0889 152.808 34.6222 152.808 34.0667C152.808 33.5111 152.986 33.0556 153.341 32.7C153.719 32.3444 154.197 32.1667 154.774 32.1667C155.308 32.1667 155.763 32.3444 156.141 32.7C156.519 33.0556 156.708 33.5111 156.708 34.0667C156.708 34.6222 156.519 35.0889 156.141 35.4667C155.763 35.8222 155.308 36 154.774 36ZM165.869 63.3333C164.38 63.3333 163.058 63.1333 161.903 62.7333C160.747 62.3556 159.847 61.7778 159.203 61C158.558 60.2444 158.236 59.3111 158.236 58.2C158.236 57.7111 158.336 57.2 158.536 56.6667C158.758 56.1333 159.125 55.6111 159.636 55.1C160.169 54.5667 160.914 54.0778 161.869 53.6333L163.736 54.7667C162.603 55.2556 161.858 55.7778 161.503 56.3333C161.147 56.9111 160.969 57.5 160.969 58.1C160.969 58.7444 161.158 59.2889 161.536 59.7333C161.936 60.2 162.503 60.5444 163.236 60.7667C163.991 61.0111 164.869 61.1333 165.869 61.1333C166.891 61.1333 167.736 60.9889 168.403 60.7C169.069 60.4333 169.569 60.0556 169.903 59.5667C170.258 59.1 170.436 58.5556 170.436 57.9333C170.436 57.2222 170.147 56.6333 169.569 56.1667C169.014 55.7222 167.947 55.4556 166.369 55.3667C165.058 55.2778 163.958 55.1556 163.069 55C162.203 54.8444 161.48 54.6667 160.903 54.4667C160.325 54.2444 159.836 54 159.436 53.7333C159.058 53.4667 158.714 53.1889 158.403 52.9V52.1333L161.636 48.9L163.569 49.7333L160.736 52.8L161.069 51.6667C161.269 51.8222 161.48 51.9667 161.703 52.1C161.947 52.2333 162.269 52.3667 162.669 52.5C163.069 52.6111 163.614 52.7222 164.303 52.8333C164.991 52.9222 165.891 53.0111 167.003 53.1C168.491 53.2111 169.691 53.4667 170.603 53.8667C171.514 54.2444 172.169 54.7667 172.569 55.4333C172.991 56.1 173.203 56.9 173.203 57.8333C173.203 58.7222 172.936 59.5889 172.403 60.4333C171.891 61.2778 171.091 61.9667 170.003 62.5C168.936 63.0556 167.558 63.3333 165.869 63.3333ZM165.836 50.8C164.436 50.8 163.247 50.5444 162.269 50.0333C161.291 49.5 160.547 48.7889 160.036 47.9C159.525 47.0111 159.269 46.0222 159.269 44.9333C159.269 43.8444 159.525 42.8667 160.036 42C160.547 41.1111 161.291 40.4 162.269 39.8667C163.247 39.3333 164.436 39.0667 165.836 39.0667C167.236 39.0667 168.425 39.3333 169.403 39.8667C170.38 40.4 171.125 41.1111 171.636 42C172.147 42.8667 172.403 43.8444 172.403 44.9333C172.403 46.0222 172.147 47.0111 171.636 47.9C171.125 48.7889 170.38 49.5 169.403 50.0333C168.425 50.5444 167.236 50.8 165.836 50.8ZM165.836 48.6C167.014 48.6 167.947 48.2889 168.636 47.6667C169.347 47.0444 169.703 46.1333 169.703 44.9333C169.703 43.7333 169.347 42.8333 168.636 42.2333C167.947 41.6111 167.014 41.3 165.836 41.3C164.658 41.3 163.714 41.6111 163.003 42.2333C162.291 42.8333 161.936 43.7333 161.936 44.9333C161.936 46.1333 162.291 47.0444 163.003 47.6667C163.714 48.2889 164.658 48.6 165.836 48.6ZM168.503 41.6333L167.669 39.4667H174.536V41.2333L168.503 41.6333ZM175.795 56V39.4667H178.295L178.528 42.2333H178.595C179.15 41.2556 179.906 40.4889 180.861 39.9333C181.839 39.3556 182.972 39.0667 184.261 39.0667C185.55 39.0667 186.672 39.3333 187.628 39.8667C188.583 40.3778 189.317 41.1778 189.828 42.2667C190.361 43.3333 190.628 44.6889 190.628 46.3333V56H187.828V46.6333C187.828 44.9222 187.461 43.6333 186.728 42.7667C185.995 41.9 184.939 41.4667 183.561 41.4667C182.606 41.4667 181.75 41.7 180.995 42.1667C180.261 42.6333 179.672 43.3111 179.228 44.2C178.806 45.0667 178.595 46.1444 178.595 47.4333V56H175.795ZM200.094 56.4C198.516 56.4 197.116 56.0444 195.894 55.3333C194.672 54.6 193.705 53.5889 192.994 52.3C192.305 50.9889 191.961 49.4667 191.961 47.7333C191.961 45.9778 192.305 44.4556 192.994 43.1667C193.683 41.8778 194.639 40.8778 195.861 40.1667C197.105 39.4333 198.539 39.0667 200.161 39.0667C201.783 39.0667 203.172 39.4333 204.328 40.1667C205.483 40.8778 206.372 41.8222 206.994 43C207.616 44.1556 207.928 45.4222 207.928 46.8C207.928 47.0222 207.928 47.2667 207.928 47.5333C207.928 47.7778 207.916 48.0556 207.894 48.3667H194.061V46.2H205.161C205.094 44.6667 204.583 43.4778 203.628 42.6333C202.694 41.7667 201.516 41.3333 200.094 41.3333C199.139 41.3333 198.25 41.5444 197.428 41.9667C196.605 42.3889 195.939 43.0111 195.428 43.8333C194.939 44.6556 194.694 45.7 194.694 46.9667V47.9C194.694 49.2778 194.95 50.4222 195.461 51.3333C195.972 52.2444 196.639 52.9333 197.461 53.4C198.283 53.8444 199.161 54.0667 200.094 54.0667C201.25 54.0667 202.216 53.8 202.994 53.2667C203.772 52.7333 204.339 52 204.694 51.0667H207.461C207.172 52.0889 206.694 53 206.028 53.8C205.361 54.6 204.528 55.2333 203.528 55.7C202.55 56.1667 201.405 56.4 200.094 56.4ZM209.293 56V39.4667H211.793L212.06 42.9H212.127C212.593 41.8778 213.104 41.1 213.66 40.5667C214.215 40.0111 214.86 39.6222 215.593 39.4C216.349 39.1778 217.238 39.0667 218.26 39.0667V42H217.527C216.704 42 215.949 42.1111 215.26 42.3333C214.593 42.5333 214.027 42.8556 213.56 43.3C213.093 43.7222 212.727 44.2889 212.46 45C212.215 45.7111 212.093 46.5556 212.093 47.5333V56H209.293Z" fill="black"/>
<path d="M260.198 2.92827C247.226 -0.848123 241.384 0.635787 232.455 7.06611L241.975 24.8271C247.308 13.7104 251.171 8.70283 260.198 2.92827Z" fill="#FAE00A"/>
</svg>
